HIERARCHY
ROOT mixamorig:Hips
{
	OFFSET -0.000008 104.274872 1.554316
	CHANNELS 6 Xposition Yposition Zposition Xrotation Yrotation Zrotation
	JOINT mixamorig:Spine
	{
		OFFSET -0.000005 10.181595 0.131519
		CHANNELS 6 Xposition Yposition Zposition Xrotation Yrotation Zrotation
		JOINT mixamorig:Spine1
		{
			OFFSET -0.000000 9.893959 -1.470707
			CHANNELS 6 Xposition Yposition Zposition Xrotation Yrotation Zrotation
			JOINT mixamorig:Spine2
			{
				OFFSET -0.000000 9.220757 -1.370641
				CHANNELS 6 Xposition Yposition Zposition Xrotation Yrotation Zrotation
				JOINT mixamorig:Neck
				{
					OFFSET 0.000001 16.740417 -2.049036
					CHANNELS 6 Xposition Yposition Zposition Xrotation Yrotation Zrotation
					JOINT mixamorig:Head
					{
						OFFSET 0.000000 9.617874 1.685006
						CHANNELS 6 Xposition Yposition Zposition Xrotation Yrotation Zrotation
						JOINT mixamorig:HeadTop_End
						{
							OFFSET 0.000002 22.037354 7.501101
							CHANNELS 6 Xposition Yposition Zposition Xrotation Yrotation Zrotation
							End Site
							{
								OFFSET 0.000168 2310.654297 -282.823242
							}
						}
					}
				}
				JOINT mixamorig:RightShoulder
				{
					OFFSET -4.569970 11.014908 -2.160885
					CHANNELS 6 Xposition Yposition Zposition Xrotation Yrotation Zrotation
					JOINT mixamorig:RightArm
					{
						OFFSET -10.592851 -0.524811 -2.232101
						CHANNELS 6 Xposition Yposition Zposition Xrotation Yrotation Zrotation
						JOINT mixamorig:RightForeArm
						{
							OFFSET -27.841511 0.000031 -0.000004
							CHANNELS 6 Xposition Yposition Zposition Xrotation Yrotation Zrotation
							JOINT mixamorig:RightHand
							{
								OFFSET -28.328831 -0.000015 0.000015
								CHANNELS 6 Xposition Yposition Zposition Xrotation Yrotation Zrotation
								JOINT mixamorig:RightHandThumb1
								{
									OFFSET -2.464806 -1.573990 2.681852
									CHANNELS 6 Xposition Yposition Zposition Xrotation Yrotation Zrotation
									JOINT mixamorig:RightHandThumb2
									{
										OFFSET -3.215179 -1.872803 1.924282
										CHANNELS 6 Xposition Yposition Zposition Xrotation Yrotation Zrotation
										JOINT mixamorig:RightHandThumb3
										{
											OFFSET -2.654831 -1.527969 1.512609
											CHANNELS 6 Xposition Yposition Zposition Xrotation Yrotation Zrotation
											JOINT mixamorig:RightHandThumb4
											{
												OFFSET -2.018814 -1.152008 1.108052
												CHANNELS 6 Xposition Yposition Zposition Xrotation Yrotation Zrotation
												End Site
												{
													OFFSET -188.809540 -114.533607 132.431396
												}
											}
										}
									}
								}
								JOINT mixamorig:RightHandIndex1
								{
									OFFSET -9.108284 -0.517868 2.259835
									CHANNELS 6 Xposition Yposition Zposition Xrotation Yrotation Zrotation
									JOINT mixamorig:RightHandIndex2
									{
										OFFSET -3.699989 0.000000 0.001215
										CHANNELS 6 Xposition Yposition Zposition Xrotation Yrotation Zrotation
										JOINT mixamorig:RightHandIndex3
										{
											OFFSET -2.850006 0.000031 -0.000522
											CHANNELS 6 Xposition Yposition Zposition Xrotation Yrotation Zrotation
											JOINT mixamorig:RightHandIndex4
											{
												OFFSET -2.772186 -0.000015 -0.000020
												CHANNELS 6 Xposition Yposition Zposition Xrotation Yrotation Zrotation
												End Site
												{
													OFFSET -277.218445 0.000000 -0.050231
												}
											}
										}
									}
								}
								JOINT mixamorig:RightHandMiddle1
								{
									OFFSET -9.532516 -0.000031 -0.000023
									CHANNELS 6 Xposition Yposition Zposition Xrotation Yrotation Zrotation
									JOINT mixamorig:RightHandMiddle2
									{
										OFFSET -3.700005 -0.000015 0.003713
										CHANNELS 6 Xposition Yposition Zposition Xrotation Yrotation Zrotation
										JOINT mixamorig:RightHandMiddle3
										{
											OFFSET -2.949974 0.000015 -0.002054
											CHANNELS 6 Xposition Yposition Zposition Xrotation Yrotation Zrotation
											JOINT mixamorig:RightHandMiddle4
											{
												OFFSET -2.946640 0.000000 -0.000156
												CHANNELS 6 Xposition Yposition Zposition Xrotation Yrotation Zrotation
												End Site
												{
													OFFSET -294.664337 0.000000 -0.113670
												}
											}
										}
									}
								}
								JOINT mixamorig:RightHandRing1
								{
									OFFSET -9.103600 -0.043076 -1.865134
									CHANNELS 6 Xposition Yposition Zposition Xrotation Yrotation Zrotation
									JOINT mixamorig:RightHandRing2
									{
										OFFSET -3.379288 0.000000 -0.001055
										CHANNELS 6 Xposition Yposition Zposition Xrotation Yrotation Zrotation
										JOINT mixamorig:RightHandRing3
										{
											OFFSET -2.889687 -0.000015 0.000379
											CHANNELS 6 Xposition Yposition Zposition Xrotation Yrotation Zrotation
											JOINT mixamorig:RightHandRing4
											{
												OFFSET -2.638809 -0.000015 0.000941
												CHANNELS 6 Xposition Yposition Zposition Xrotation Yrotation Zrotation
												End Site
												{
													OFFSET -263.880371 0.000000 0.516020
												}
											}
										}
									}
								}
								JOINT mixamorig:RightHandPinky1
								{
									OFFSET -8.076683 -0.486710 -3.806280
									CHANNELS 6 Xposition Yposition Zposition Xrotation Yrotation Zrotation
									JOINT mixamorig:RightHandPinky2
									{
										OFFSET -3.600014 -0.000015 -0.003747
										CHANNELS 6 Xposition Yposition Zposition Xrotation Yrotation Zrotation
										JOINT mixamorig:RightHandPinky3
										{
											OFFSET -2.099983 0.000000 -0.005739
											CHANNELS 6 Xposition Yposition Zposition Xrotation Yrotation Zrotation
											JOINT mixamorig:RightHandPinky4
											{
												OFFSET -2.115768 -0.000031 -0.003680
												CHANNELS 6 Xposition Yposition Zposition Xrotation Yrotation Zrotation
												End Site
												{
													OFFSET -211.577087 0.000000 -0.350686
												}
											}
										}
									}
								}
							}
						}
					}
				}
				JOINT mixamorig:LeftShoulder
				{
					OFFSET 4.570447 11.014725 -2.160855
					CHANNELS 6 Xposition Yposition Zposition Xrotation Yrotation Zrotation
					JOINT mixamorig:LeftArm
					{
						OFFSET 10.592371 -0.524597 -2.232119
						CHANNELS 6 Xposition Yposition Zposition Xrotation Yrotation Zrotation
						JOINT mixamorig:LeftForeArm
						{
							OFFSET 27.841532 -0.000031 0.000026
							CHANNELS 6 Xposition Yposition Zposition Xrotation Yrotation Zrotation
							JOINT mixamorig:LeftHand
							{
								OFFSET 28.328846 -0.000061 0.000022
								CHANNELS 6 Xposition Yposition Zposition Xrotation Yrotation Zrotation
								JOINT mixamorig:LeftHandThumb1
								{
									OFFSET 2.466141 -1.576172 2.681732
									CHANNELS 6 Xposition Yposition Zposition Xrotation Yrotation Zrotation
									JOINT mixamorig:LeftHandThumb2
									{
										OFFSET 3.217812 -1.872070 1.916482
										CHANNELS 6 Xposition Yposition Zposition Xrotation Yrotation Zrotation
										JOINT mixamorig:LeftHandThumb3
										{
											OFFSET 2.656029 -1.528778 1.514513
											CHANNELS 6 Xposition Yposition Zposition Xrotation Yrotation Zrotation
											JOINT mixamorig:LeftHandThumb4
											{
												OFFSET 2.020889 -1.154053 1.115139
												CHANNELS 6 Xposition Yposition Zposition Xrotation Yrotation Zrotation
												End Site
												{
													OFFSET 190.885437 -115.081749 130.048782
												}
											}
										}
									}
								}
								JOINT mixamorig:LeftHandIndex1
								{
									OFFSET 9.109314 -0.518021 2.259871
									CHANNELS 6 Xposition Yposition Zposition Xrotation Yrotation Zrotation
									JOINT mixamorig:LeftHandIndex2
									{
										OFFSET 3.699989 0.000000 -0.000322
										CHANNELS 6 Xposition Yposition Zposition Xrotation Yrotation Zrotation
										JOINT mixamorig:LeftHandIndex3
										{
											OFFSET 2.850006 0.000000 0.000352
											CHANNELS 6 Xposition Yposition Zposition Xrotation Yrotation Zrotation
											JOINT mixamorig:LeftHandIndex4
											{
												OFFSET 2.774864 -0.000031 -0.000027
												CHANNELS 6 Xposition Yposition Zposition Xrotation Yrotation Zrotation
												End Site
												{
													OFFSET 277.486267 0.000000 -0.009857
												}
											}
										}
									}
								}
								JOINT mixamorig:LeftHandMiddle1
								{
									OFFSET 9.533394 0.000061 0.000044
									CHANNELS 6 Xposition Yposition Zposition Xrotation Yrotation Zrotation
									JOINT mixamorig:LeftHandMiddle2
									{
										OFFSET 3.699989 -0.000015 -0.000231
										CHANNELS 6 Xposition Yposition Zposition Xrotation Yrotation Zrotation
										JOINT mixamorig:LeftHandMiddle3
										{
											OFFSET 2.949997 -0.000015 -0.000059
											CHANNELS 6 Xposition Yposition Zposition Xrotation Yrotation Zrotation
											JOINT mixamorig:LeftHandMiddle4
											{
												OFFSET 2.952896 0.000031 0.000063
												CHANNELS 6 Xposition Yposition Zposition Xrotation Yrotation Zrotation
												End Site
												{
													OFFSET 295.289337 0.000000 0.022810
												}
											}
										}
									}
								}
								JOINT mixamorig:LeftHandRing1
								{
									OFFSET 9.104523 -0.042999 -1.865074
									CHANNELS 6 Xposition Yposition Zposition Xrotation Yrotation Zrotation
									JOINT mixamorig:LeftHandRing2
									{
										OFFSET 3.150009 -0.000031 0.000043
										CHANNELS 6 Xposition Yposition Zposition Xrotation Yrotation Zrotation
										JOINT mixamorig:LeftHandRing3
										{
											OFFSET 2.949982 -0.000015 0.000040
											CHANNELS 6 Xposition Yposition Zposition Xrotation Yrotation Zrotation
											JOINT mixamorig:LeftHandRing4
											{
												OFFSET 2.644348 0.000000 0.000057
												CHANNELS 6 Xposition Yposition Zposition Xrotation Yrotation Zrotation
												End Site
												{
													OFFSET 264.434631 0.000000 0.012105
												}
											}
										}
									}
								}
								JOINT mixamorig:LeftHandPinky1
								{
									OFFSET 8.077789 -0.486847 -3.806259
									CHANNELS 6 Xposition Yposition Zposition Xrotation Yrotation Zrotation
									JOINT mixamorig:LeftHandPinky2
									{
										OFFSET 3.599953 0.000031 0.014727
										CHANNELS 6 Xposition Yposition Zposition Xrotation Yrotation Zrotation
										JOINT mixamorig:LeftHandPinky3
										{
											OFFSET 2.100021 0.000015 0.007705
											CHANNELS 6 Xposition Yposition Zposition Xrotation Yrotation Zrotation
											JOINT mixamorig:LeftHandPinky4
											{
												OFFSET 2.125504 0.000031 0.007517
												CHANNELS 6 Xposition Yposition Zposition Xrotation Yrotation Zrotation
												End Site
												{
													OFFSET 212.550781 0.000000 0.625752
												}
											}
										}
									}
								}
							}
						}
					}
				}
			}
		}
	}
	JOINT mixamorig:RightUpLeg
	{
		OFFSET -8.207787 -6.751648 -1.599560
		CHANNELS 6 Xposition Yposition Zposition Xrotation Yrotation Zrotation
		JOINT mixamorig:RightLeg
		{
			OFFSET -0.000002 -44.370117 0.345942
			CHANNELS 6 Xposition Yposition Zposition Xrotation Yrotation Zrotation
			JOINT mixamorig:RightFoot
			{
				OFFSET 0.000003 -44.423679 -3.043532
				CHANNELS 6 Xposition Yposition Zposition Xrotation Yrotation Zrotation
				JOINT mixamorig:RightToeBase
				{
					OFFSET -0.000002 -8.728671 10.710558
					CHANNELS 6 Xposition Yposition Zposition Xrotation Yrotation Zrotation
					JOINT mixamorig:RightToe_End
					{
						OFFSET -0.000001 -0.000679 9.278119
						CHANNELS 6 Xposition Yposition Zposition Xrotation Yrotation Zrotation
						End Site
						{
							OFFSET 0.000000 -0.067690 927.812134
						}
					}
				}
			}
		}
	}
	JOINT mixamorig:LeftUpLeg
	{
		OFFSET 8.207793 -6.751686 -1.599556
		CHANNELS 6 Xposition Yposition Zposition Xrotation Yrotation Zrotation
		JOINT mixamorig:LeftLeg
		{
			OFFSET -0.000004 -44.370014 0.346954
			CHANNELS 6 Xposition Yposition Zposition Xrotation Yrotation Zrotation
			JOINT mixamorig:LeftFoot
			{
				OFFSET -0.000001 -44.423672 -3.044401
				CHANNELS 6 Xposition Yposition Zposition Xrotation Yrotation Zrotation
				JOINT mixamorig:LeftToeBase
				{
					OFFSET -0.000002 -8.728669 10.710558
					CHANNELS 6 Xposition Yposition Zposition Xrotation Yrotation Zrotation
					JOINT mixamorig:LeftToe_End
					{
						OFFSET -0.000003 -0.000679 9.278133
						CHANNELS 6 Xposition Yposition Zposition Xrotation Yrotation Zrotation
						End Site
						{
							OFFSET 0.000000 -0.068021 927.813477
						}
					}
				}
			}
		}
	}
}
MOTION
Frames: 3
Frame Time: 0.033333
0.000006 104.270477 1.554256 0.000010 0.000003 -0.000113 -0.000005 10.181587 0.131522 0.000001 -0.000003 0.000084 -0.000000 9.893967 -1.470711 0.000001 0.000000 -0.000000 -0.000000 9.220802 -1.370642 0.000000 -0.000000 -0.000000 0.000001 16.740433 -2.049030 0.000000 -0.000000 -0.000000 0.000000 9.617859 1.685014 0.000000 0.000000 0.000000 0.000002 22.037384 7.501101 0.000000 -0.000000 0.000000 -4.569968 11.014880 -2.160881 0.000008 0.000001 -0.000038 -10.592875 -0.524766 -2.231898 75.581787 30.297162 -23.712035 -27.841503 0.000008 0.000552 -50.128264 108.274631 65.801551 -28.328806 0.000006 0.000030 -0.000321 -0.000042 0.000004 -2.464405 -1.573803 2.682329 -44.432010 -158.299046 -2.174034 -3.215253 -1.872507 1.924619 148.450787 33.279113 24.487645 -2.654963 -1.527831 1.513047 147.285243 27.587342 -29.654260 -2.018830 -1.152000 1.108055 -0.000001 -0.000000 0.000003 -9.108388 -0.517552 2.260106 98.120141 15.929434 -18.378366 -3.700069 0.000302 0.001500 95.632491 14.367281 -15.809726 -2.850077 0.000363 -0.000259 95.386119 12.209845 -13.403667 -2.772156 -0.000015 -0.000018 0.000003 -0.000000 -0.000000 -9.532592 0.000258 0.000260 94.289334 16.681955 -18.113578 -3.700092 0.000325 0.003978 95.169158 13.681630 -14.855941 -2.950071 0.000316 -0.001803 97.701956 12.718969 -14.528246 -2.946623 0.000003 -0.000155 -0.000001 -0.000001 -0.000001 -9.103712 -0.042758 -1.864877 91.894123 19.318548 -19.908173 -3.379349 0.000299 -0.000793 95.005268 11.745616 -12.830087 -2.889765 0.000350 0.000676 101.547366 8.623612 -10.610748 -2.638799 -0.000012 0.000940 -0.000000 0.000001 0.000002 -8.076782 -0.486405 -3.806062 78.302259 22.273611 -18.081018 -3.600056 0.000265 -0.003531 83.243204 12.236592 -10.549570 -2.100033 0.000310 -0.005518 88.660780 6.943360 -6.565061 -2.115772 -0.000055 -0.003679 0.000003 0.000000 -0.000005 4.570446 11.014691 -2.160851 -0.000018 0.000010 -0.000021 10.592497 -0.524576 -2.232357 39.085734 -71.536184 28.687092 27.841770 -0.000047 -0.000100 216.491288 -72.627587 228.318279 28.328840 -0.000028 0.000026 0.000019 -0.000089 -0.000000 2.466199 -1.576087 2.681905 101.710574 172.054555 -157.209890 3.217869 -1.871958 1.916552 77.947963 152.602026 -139.482394 2.656065 -1.528724 1.514598 62.342306 150.570701 -128.129527 2.020895 -1.154077 1.115137 0.000001 -0.000002 0.000001 9.109227 -0.518046 2.259951 178.269249 -16.685039 168.163642 3.699913 -0.000038 -0.000248 177.400449 -17.953666 163.752392 2.849856 0.000004 0.000430 180.261369 -14.526550 182.041972 2.774881 -0.000031 -0.000025 0.000001 -0.000001 -0.000001 9.533539 0.000220 0.000005 134.291450 -23.803180 53.114283 3.700108 0.000182 -0.000297 128.548081 -23.903526 47.427997 2.950148 0.000200 -0.000108 141.279225 -20.110054 53.562634 2.952864 -0.000030 0.000066 0.000001 -0.000000 0.000001 9.104605 -0.042980 -1.865154 61.880763 -41.443580 25.555479 3.150004 0.000011 0.000057 0.578318 -7.007547 0.035510 2.949978 -0.000008 0.000086 -20.230407 7.118741 1.271214 2.644320 0.000014 0.000058 0.000002 0.000003 -0.000001 8.077835 -0.486847 -3.806318 39.719247 -30.658294 11.608366 3.599970 -0.000000 0.014758 173.174242 181.976238 -180.135762 2.099997 -0.000008 0.007762 -23.027766 12.940751 2.517691 2.125497 -0.000030 0.007512 0.000000 0.000001 -0.000001 -8.207786 -6.751667 -1.599560 -0.077001 -0.000003 0.000080 -0.000002 -44.370110 0.345938 0.153719 -0.000000 -0.000000 0.000000 -44.423679 -3.043532 -0.076700 0.000000 -0.000002 -0.000006 -8.728667 10.710559 -0.000009 -0.000000 -0.000000 -0.000001 -0.000679 9.278123 0.000000 -0.000000 -0.000000 8.207792 -6.751710 -1.599556 -0.074518 -0.000003 0.000081 -0.000002 -44.370014 0.346960 0.148822 0.000002 0.000000 -0.000001 -44.423664 -3.044403 -0.074314 0.000000 -0.000002 -0.000004 -8.728671 10.710558 0.000007 -0.000000 -0.000000 0.000000 -0.000680 9.278137 -0.000000 0.000000 -0.000001 
0.000006 104.270477 1.554256 0.000010 0.000003 -0.000113 -0.000005 10.181587 0.131522 0.000001 -0.000003 0.000084 -0.000000 9.893967 -1.470711 0.000001 0.000000 -0.000000 -0.000000 9.220802 -1.370642 0.000000 -0.000000 -0.000000 0.000001 16.740433 -2.049030 0.000000 -0.000000 -0.000000 0.000000 9.617859 1.685014 0.000000 0.000000 0.000000 0.000002 22.037384 7.501101 0.000000 -0.000000 0.000000 -4.569968 11.014880 -2.160881 0.000008 0.000001 -0.000038 -10.592871 -0.524775 -2.231893 75.603016 33.830398 -26.547603 -27.841522 0.000014 0.000566 -50.260155 108.210865 65.896934 -28.328825 0.000023 0.000027 -0.000322 -0.000046 0.000009 -2.464404 -1.573851 2.682338 -42.179816 -156.398150 2.518677 -3.215261 -1.872503 1.924630 148.697125 33.158615 22.954958 -2.654963 -1.527843 1.513059 146.613398 27.696859 -29.461369 -2.018818 -1.152000 1.108070 -0.000001 0.000000 0.000002 -9.108373 -0.517546 2.260113 97.759521 15.320746 -17.570347 -3.700065 0.000322 0.001509 95.237398 13.748243 -15.025798 -2.850088 0.000360 -0.000290 94.700491 11.653750 -12.642511 -2.772173 -0.000015 -0.000020 -0.000001 0.000000 0.000001 -9.532578 0.000269 0.000246 94.450854 15.934205 -17.357457 -3.700079 0.000326 0.003991 95.323220 13.034923 -14.188567 -2.950059 0.000325 -0.001805 97.020604 12.460811 -14.065996 -2.946626 0.000004 -0.000154 0.000002 -0.000001 0.000001 -9.103704 -0.042764 -1.864884 91.779397 18.654703 -19.185790 -3.379350 0.000323 -0.000800 94.916967 11.466274 -12.506554 -2.889765 0.000340 0.000662 100.699576 8.551003 -10.365373 -2.638805 -0.000019 0.000941 0.000001 -0.000001 0.000001 -8.076759 -0.486400 -3.806054 78.072266 21.173197 -17.106200 -3.600062 0.000263 -0.003540 83.288556 11.615720 -10.007037 -2.100028 0.000313 -0.005501 87.901393 6.698453 -6.243319 -2.115759 -0.000027 -0.003682 -0.000001 -0.000001 -0.000004 4.570446 11.014691 -2.160851 -0.000018 0.000010 -0.000021 10.592497 -0.524578 -2.232360 38.541525 -71.893861 28.452015 27.841774 -0.000077 -0.000103 216.501082 -73.196112 227.887800 28.328838 -0.000029 0.000027 0.000019 -0.000088 -0.000000 2.466191 -1.576073 2.681918 99.329549 168.587305 -155.518312 3.217845 -1.871958 1.916568 76.780711 150.866502 -138.050909 2.656067 -1.528726 1.514611 61.992382 150.029149 -127.586172 2.020890 -1.154066 1.115140 -0.000000 0.000003 0.000006 9.109184 -0.518037 2.259955 179.873086 -15.868635 179.017032 3.699879 -0.000018 -0.000246 179.051483 -17.682926 174.002553 2.849794 0.000063 0.000436 182.093431 -13.327071 197.769097 2.774883 -0.000031 -0.000027 0.000002 0.000003 -0.000002 9.533542 0.000237 0.000023 142.772619 -20.620519 56.723338 3.700140 0.000183 -0.000248 143.178086 -19.277569 54.054247 2.950144 0.000228 -0.000067 151.132060 -13.219291 48.485549 2.952871 -0.000017 0.000074 0.000003 0.000003 0.000001 9.104597 -0.042969 -1.865136 69.218961 -45.608530 32.361972 3.150010 0.000002 0.000078 -2.940452 -8.408005 -0.216112 2.949978 0.000012 0.000068 -17.159858 7.908609 1.194759 2.644325 0.000031 0.000055 0.000001 -0.000003 0.000000 8.077833 -0.486830 -3.806330 49.526969 -33.440753 16.140145 3.599958 0.000026 0.014750 171.122549 176.464276 -179.771235 2.099995 -0.000012 0.007736 -19.435677 17.021011 2.805783 2.125504 0.000001 0.007515 0.000000 0.000001 -0.000000 -8.207786 -6.751667 -1.599560 -0.077001 -0.000003 0.000080 -0.000002 -44.370110 0.345938 0.153719 -0.000000 -0.000000 0.000000 -44.423679 -3.043532 -0.076700 0.000000 -0.000002 -0.000006 -8.728667 10.710559 -0.000009 -0.000000 -0.000000 -0.000001 -0.000679 9.278123 0.000000 -0.000000 -0.000000 8.207792 -6.751710 -1.599556 -0.074518 -0.000003 0.000081 -0.000002 -44.370014 0.346960 0.148822 0.000002 0.000000 -0.000001 -44.423664 -3.044403 -0.074314 0.000000 -0.000002 -0.000004 -8.728671 10.710558 0.000007 -0.000000 -0.000000 0.000000 -0.000680 9.278137 -0.000000 0.000000 -0.000001 
0.000006 104.270477 1.554256 0.000010 0.000003 -0.000113 -0.000005 10.181587 0.131522 0.000001 -0.000003 0.000084 -0.000000 9.893967 -1.470711 0.000001 0.000000 -0.000000 -0.000000 9.220802 -1.370642 0.000000 -0.000000 -0.000000 0.000001 16.740433 -2.049030 0.000000 -0.000000 -0.000000 0.000000 9.617859 1.685014 0.000000 0.000000 0.000000 0.000002 22.037384 7.501101 0.000000 -0.000000 0.000000 -4.569968 11.014880 -2.160881 0.000008 0.000001 -0.000038 -10.592879 -0.524746 -2.231916 75.573031 25.069342 -19.560256 -27.841511 0.000010 0.000544 -49.853766 110.174558 67.318864 -28.328835 0.000021 0.000029 -0.000321 -0.000045 0.000009 -2.464410 -1.573837 2.682342 -41.456960 -155.439560 3.850625 -3.215254 -1.872519 1.924620 148.300510 33.145863 23.746783 -2.654966 -1.527854 1.513053 146.302543 27.832927 -28.378734 -2.018819 -1.151997 1.108057 -0.000002 -0.000000 0.000002 -9.108384 -0.517535 2.260124 97.889253 14.954254 -17.191269 -3.700070 0.000321 0.001500 95.161747 13.146148 -14.349140 -2.850094 0.000363 -0.000260 93.984059 11.042160 -11.831513 -2.772181 -0.000015 -0.000020 0.000001 0.000001 0.000001 -9.532604 0.000282 0.000247 94.357977 15.365279 -16.716799 -3.700062 0.000325 0.003974 95.634512 12.337144 -13.498228 -2.950063 0.000338 -0.001781 96.876862 11.976002 -13.485783 -2.946642 0.000001 -0.000156 0.000000 0.000000 -0.000002 -9.103720 -0.042764 -1.864886 91.970130 17.936821 -18.507222 -3.379348 0.000321 -0.000792 95.366933 10.877886 -11.959641 -2.889747 0.000348 0.000666 100.896989 8.165505 -9.935693 -2.638807 -0.000020 0.000941 -0.000002 -0.000001 -0.000001 -8.076775 -0.486398 -3.806049 78.109285 20.787587 -16.801326 -3.600053 0.000262 -0.003547 83.459666 11.201971 -9.668915 -2.100016 0.000320 -0.005508 87.899146 6.292684 -5.853044 -2.115761 -0.000043 -0.003677 0.000000 0.000003 -0.000006 4.570446 11.014691 -2.160851 -0.000018 0.000010 -0.000021 10.592493 -0.524556 -2.232359 37.334128 -69.809758 26.527785 27.841774 -0.000070 -0.000096 215.760280 -71.782331 228.055741 28.328831 -0.000029 0.000024 0.000018 -0.000088 -0.000000 2.466197 -1.576075 2.681909 100.116605 169.036732 -155.920310 3.217844 -1.871953 1.916562 78.428105 152.736253 -139.811923 2.656075 -1.528744 1.514606 61.440871 151.341884 -127.970479 2.020903 -1.154081 1.115140 0.000001 0.000003 0.000001 9.109211 -0.518032 2.259956 179.326412 -16.915080 175.402400 3.699878 -0.000032 -0.000240 178.715725 -18.001949 171.999832 2.849779 0.000035 0.000434 182.440637 -13.202590 200.851767 2.774887 -0.000027 -0.000026 0.000001 -0.000002 0.000003 9.533545 0.000252 0.000010 141.523295 -20.171784 53.989268 3.700151 0.000201 -0.000259 143.892032 -18.461267 52.990042 2.950150 0.000231 -0.000067 155.102039 -12.051285 51.123119 2.952859 -0.000002 0.000058 0.000003 0.000002 -0.000000 9.104609 -0.042954 -1.865148 67.418960 -41.537300 28.398658 3.150012 -0.000019 0.000069 -1.883373 -7.835582 -0.128915 2.949986 -0.000009 0.000080 -19.926196 8.285988 1.457631 2.644323 0.000015 0.000059 -0.000001 -0.000000 0.000001 8.077839 -0.486835 -3.806336 45.249047 -28.623919 12.458380 3.599951 0.000017 0.014741 170.098690 177.655392 -179.842091 2.099996 0.000014 0.007753 -23.192814 16.420991 3.249790 2.125497 -0.000047 0.007515 0.000000 0.000000 -0.000000 -8.207786 -6.751667 -1.599560 -0.077001 -0.000003 0.000080 -0.000002 -44.370110 0.345938 0.153719 -0.000000 -0.000000 0.000000 -44.423679 -3.043532 -0.076700 0.000000 -0.000002 -0.000006 -8.728667 10.710559 -0.000009 -0.000000 -0.000000 -0.000001 -0.000679 9.278123 0.000000 -0.000000 -0.000000 8.207792 -6.751710 -1.599556 -0.074518 -0.000003 0.000081 -0.000002 -44.370014 0.346960 0.148822 0.000002 0.000000 -0.000001 -44.423664 -3.044403 -0.074314 0.000000 -0.000002 -0.000004 -8.728671 10.710558 0.000007 -0.000000 -0.000000 0.000000 -0.000680 9.278137 -0.000000 0.000000 -0.000001 
